<?xml version="1.0" encoding="utf-8"?>
<!-- Svg Vector Icons : http://www.onlinewebfonts.com/icon -->
<!DOCTYPE svg PUBLIC "-//W3C//DTD SVG 1.1//EN" "http://www.w3.org/Graphics/SVG/1.1/DTD/svg11.dtd">
<svg version="1.1" xmlns="http://www.w3.org/2000/svg" xmlns:xlink="http://www.w3.org/1999/xlink" x="0px" y="0px" viewBox="0 0 1000 1000" enable-background="new 0 0 1000 1000" xml:space="preserve">
<metadata> Svg Vector Icons : http://www.onlinewebfonts.com/icon </metadata>
<g><g><g><path d="M802.3,990c-23.4,0-45.3-9.1-61.8-25.5L500,725.1L259.5,964.5c-16.4,16.4-38.3,25.5-61.7,25.5c-23.4,0-45.3-9.1-61.8-25.5L35.5,864c-34.1-34.1-34.1-89.5,0-123.5L274.3,500L35.5,259.5c-34-34-34-89.4,0-123.5L136,35.5C152.4,19.1,174.4,10,197.8,10c23.4,0,45.3,9.1,61.8,25.5L500,277.1L740.5,35.5C757,19.1,778.9,10,802.3,10c23.4,0,45.3,9.1,61.8,25.5L964.5,136c16.4,16.4,25.5,38.4,25.5,61.8c0,23.4-9.1,45.3-25.5,61.8L722.4,500l242,240.5c16.5,16.5,25.5,38.4,25.5,61.8c0,23.4-9.1,45.3-25.5,61.8L864.1,964.5C847.6,980.9,825.7,990,802.3,990z M500,687.5l259.3,258.1c11.4,11.4,26.7,17.7,42.9,17.7s31.5-6.3,42.9-17.7l100.4-100.4c11.4-11.4,17.7-26.6,17.7-42.9s-6.3-31.5-17.7-42.9L684.6,500l261.1-259.4c11.4-11.4,17.7-26.6,17.7-42.9c0-16.3-6.3-31.5-17.7-42.9L845.2,54.4c-11.4-11.4-26.6-17.7-42.9-17.7c-16.3,0-31.5,6.3-42.9,17.7L500,314.9L240.6,54.4C229.3,43,214,36.7,197.7,36.7c-16.3,0-31.5,6.3-42.9,17.7L54.4,154.8c-23.7,23.7-23.7,62.2,0,85.8L311.9,500L54.4,759.3c-23.7,23.7-23.7,62.2,0,85.8l100.4,100.4c11.4,11.4,26.6,17.7,42.9,17.7c16.3,0,31.5-6.3,42.9-17.7L500,687.5z"/></g></g><g></g><g></g><g></g><g></g><g></g><g></g><g></g><g></g><g></g><g></g><g></g><g></g><g></g><g></g><g></g></g>
</svg>